<svg xmlns="http://www.w3.org/2000/svg" xmlns:xlink="http://www.w3.org/1999/xlink" width="54" height="54" viewBox="0 0 54 54">
  <defs>
    <linearGradient id="linear-gradient" x1="0.101" y1="0.5" x2="8.606" y2="0.5" gradientUnits="objectBoundingBox">
      <stop offset="0" stop-color="#4e38f3"/>
      <stop offset="1" stop-color="#7f42fe"/>
    </linearGradient>
    <filter id="twitter" x="0" y="0" width="54" height="54" filterUnits="userSpaceOnUse">
      <feOffset dy="3" input="SourceAlpha"/>
      <feGaussianBlur stdDeviation="3" result="blur"/>
      <feFlood flood-opacity="0.161"/>
      <feComposite operator="in" in2="blur"/>
      <feComposite in="SourceGraphic"/>
    </filter>
  </defs>
  <g transform="matrix(1, 0, 0, 1, 0, 0)" filter="url(#twitter)">
    <path id="twitter-2" data-name="twitter" d="M18,0A18,18,0,1,0,36,18,18,18,0,0,0,18,0Zm8.955,13.959.014.574A12.6,12.6,0,0,1,7.567,25.15a9.132,9.132,0,0,0,1.058.063,8.893,8.893,0,0,0,5.5-1.9,4.439,4.439,0,0,1-4.14-3.078,4.559,4.559,0,0,0,2-.076,4.436,4.436,0,0,1-3.555-4.345v-.056a4.425,4.425,0,0,0,2.007.556A4.438,4.438,0,0,1,9.07,10.4a12.577,12.577,0,0,0,9.135,4.63,4.435,4.435,0,0,1,7.553-4.041,8.976,8.976,0,0,0,2.815-1.076,4.444,4.444,0,0,1-1.948,2.452,8.881,8.881,0,0,0,2.545-.7A8.957,8.957,0,0,1,26.955,13.959Z" transform="translate(9 6)" fill="url(#linear-gradient)"/>
  </g>
</svg>
